<svg width="46" height="46" viewBox="0 0 46 46" fill="none" xmlns="http://www.w3.org/2000/svg">
    <path d="M12.0833 13.3963V11.75C12.0833 9.42005 13.9721 7.53125 16.3021 7.53125H30.3646C32.6945 7.53125 34.5833 9.42005 34.5833 11.75V13.3963M12.0833 13.3963C12.5232 13.2408 12.9965 13.1562 13.4896 13.1562H33.1771C33.6702 13.1562 34.1435 13.2408 34.5833 13.3963M12.0833 13.3963C10.4448 13.9754 9.27083 15.5381 9.27083 17.375V19.0213M34.5833 13.3963C36.2219 13.9754 37.3958 15.5381 37.3958 17.375V19.0213M37.3958 19.0213C36.956 18.8658 36.4827 18.7812 35.9896 18.7812H10.6771C10.184 18.7812 9.71067 18.8658 9.27083 19.0213M37.3958 19.0213C39.0344 19.6005 40.2083 21.1631 40.2083 23V34.25C40.2083 36.58 38.3195 38.4688 35.9896 38.4688H10.6771C8.34713 38.4688 6.45833 36.58 6.45833 34.25V23C6.45833 21.1631 7.63228 19.6005 9.27083 19.0213" stroke="#FDFDFC" stroke-width="2" stroke-linecap="round" stroke-linejoin="round"/>
</svg>
