<svg width="46" height="46" viewBox="0 0 46 46" fill="none" xmlns="http://www.w3.org/2000/svg">
    <path d="M28.2917 36.3642C29.8535 36.8188 31.5051 37.0625 33.2135 37.0625C35.9862 37.0625 38.609 36.4205 40.9412 35.2772C40.9457 35.1697 40.9479 35.0617 40.9479 34.9531C40.9479 30.6815 37.4851 27.2188 33.2135 27.2188C30.5547 27.2188 28.2093 28.5603 26.8172 30.6035M28.2917 36.3642V36.3594C28.2917 34.2727 27.7571 32.3109 26.8172 30.6035M28.2917 36.3642C28.2917 36.431 28.2911 36.4978 28.29 36.5644C24.7993 38.6661 20.7101 39.875 16.3386 39.875C11.9671 39.875 7.87795 38.6661 4.38722 36.5644C4.38608 36.4962 4.3855 36.4278 4.3855 36.3594C4.3855 29.7578 9.73709 24.4062 16.3386 24.4062C20.8535 24.4062 24.7837 26.9094 26.8172 30.6035M22.6667 12.4531C22.6667 15.9481 19.8336 18.7812 16.3386 18.7812C12.8437 18.7812 10.0105 15.9481 10.0105 12.4531C10.0105 8.9582 12.8437 6.125 16.3386 6.125C19.8336 6.125 22.6667 8.9582 22.6667 12.4531ZM38.1355 16.6719C38.1355 19.3902 35.9319 21.5938 33.2136 21.5938C30.4953 21.5938 28.2917 19.3902 28.2917 16.6719C28.2917 13.9536 30.4953 11.75 33.2136 11.75C35.9319 11.75 38.1355 13.9536 38.1355 16.6719Z" stroke="#FDFDFC" stroke-width="2" stroke-linecap="round" stroke-linejoin="round"/>
</svg>
