<svg width="28" height="28" viewBox="0 0 28 28" fill="none" xmlns="http://www.w3.org/2000/svg">
    <mask id="mask0_45_93" style="mask-type:alpha" maskUnits="userSpaceOnUse" x="0" y="0" width="28" height="28">
        <rect width="28" height="28" fill="#C4C4C4"/>
    </mask>
    <g mask="url(#mask0_45_93)">
        <path d="M23.0416 25.6667H4.95825C3.51159 25.6667 2.33325 24.4883 2.33325 23.0417V4.95834C2.33325 3.51167 3.51159 2.33334 4.95825 2.33334H23.0416C24.4883 2.33334 25.6666 3.51167 25.6666 4.95834V23.0417C25.6666 24.4883 24.4883 25.6667 23.0416 25.6667ZM4.95825 4.08334C4.47525 4.08334 4.08325 4.4765 4.08325 4.95834V23.0417C4.08325 23.5235 4.47525 23.9167 4.95825 23.9167H23.0416C23.5246 23.9167 23.9166 23.5235 23.9166 23.0417V4.95834C23.9166 4.4765 23.5246 4.08334 23.0416 4.08334H4.95825Z" fill="black"/>
        <path d="M19.5417 9.91666H7.875C7.392 9.91666 7 9.5235 7 9.04166C7 8.55983 7.392 8.16666 7.875 8.16666H19.5417C20.0247 8.16666 20.4167 8.5575 20.4167 9.04166C20.4167 9.52583 20.0247 9.91666 19.5417 9.91666ZM19.5417 14.7117H7.875C7.392 14.7117 7 14.3197 7 13.8367C7 13.3537 7.392 12.9617 7.875 12.9617H19.5417C20.0247 12.9617 20.4167 13.3537 20.4167 13.8367C20.4167 14.3197 20.0247 14.7117 19.5417 14.7117ZM13.7083 19.5067H7.875C7.392 19.5067 7 19.1158 7 18.6317C7 18.1475 7.392 17.7567 7.875 17.7567H13.7083C14.1913 17.7567 14.5833 18.1498 14.5833 18.6317C14.5833 19.1135 14.1913 19.5067 13.7083 19.5067Z" fill="black"/>
    </g>
</svg>
