<svg width="28" height="28" viewBox="0 0 28 28" fill="none" xmlns="http://www.w3.org/2000/svg">
    <mask id="mask0_11_217" style="mask-type:alpha" maskUnits="userSpaceOnUse" x="0" y="0" width="28" height="28">
        <rect width="28" height="28" fill="#C4C4C4"/>
    </mask>
    <g mask="url(#mask0_11_217)">
        <path d="M26.0287 8.80251L14.2418 2.43834C13.9817 2.29834 13.6702 2.29834 13.41 2.43834L1.62551 8.80251C1.20085 9.03235 1.04218 9.56318 1.27202 9.98901C1.42952 10.2807 1.73168 10.4475 2.04202 10.4475C2.18202 10.4475 2.32552 10.4125 2.45735 10.3425L3.40818 9.82917L5.30868 23.261C5.55835 24.6785 6.83468 25.6667 8.40968 25.6667H19.2387C20.816 25.6667 22.0912 24.6773 22.3455 23.2318L24.2425 9.82684L25.1968 10.3425C25.6215 10.5677 26.1535 10.4125 26.3833 9.98784C26.612 9.56434 26.4533 9.03351 26.0287 8.80251ZM20.6177 22.9577C20.4928 23.6647 19.7975 23.9167 19.241 23.9167H8.41202C7.85202 23.9167 7.15785 23.6647 7.03768 22.9857L5.05201 8.94251L13.8253 4.20351L22.601 8.94018L20.6177 22.9577Z" fill="black"/>
        <path d="M9.41532 14.1855C9.41532 16.6168 11.3928 18.5955 13.8253 18.5955C16.2578 18.5955 18.2353 16.6168 18.2353 14.1855C18.2353 11.7541 16.2578 9.77547 13.8253 9.77547C11.3928 9.77547 9.41532 11.7541 9.41532 14.1855ZM16.4853 14.1855C16.4853 15.6531 15.293 16.8455 13.8253 16.8455C12.3577 16.8455 11.1653 15.6531 11.1653 14.1855C11.1653 12.7178 12.3577 11.5255 13.8253 11.5255C15.293 11.5255 16.4853 12.7178 16.4853 14.1855Z" fill="black"/>
    </g>
</svg>
