<svg width="28" height="28" viewBox="0 0 28 28" fill="none" xmlns="http://www.w3.org/2000/svg">
    <path d="M16.3334 9.91667V7.23333C16.3334 5.92655 16.3334 5.27315 16.0791 4.77402C15.8554 4.33497 15.4984 3.97802 15.0594 3.75432C14.5603 3.5 13.9069 3.5 12.6001 3.5H8.40008C7.0933 3.5 6.43989 3.5 5.94077 3.75432C5.50172 3.97802 5.14477 4.33497 4.92107 4.77402C4.66675 5.27315 4.66675 5.92655 4.66675 7.23333V20.7667C4.66675 22.0734 4.66675 22.7269 4.92107 23.226C5.14477 23.665 5.50172 24.022 5.94077 24.2457C6.43989 24.5 7.0933 24.5 8.40008 24.5H11.0834M4.66675 15.1667H10.5001M4.66675 19.8333H10.5001M12.8334 9.33334L8.16675 9.33333M10.5001 7V11.6667M21.2334 15.75C21.2334 16.7165 20.4499 17.5 19.4834 17.5C18.5169 17.5 17.7334 16.7165 17.7334 15.75C17.7334 14.7835 18.5169 14 19.4834 14C20.4499 14 21.2334 14.7835 21.2334 15.75ZM23.3334 24.5V23.9167C23.3334 22.3058 22.0276 21 20.4167 21H18.6667C17.0559 21 15.7501 22.3058 15.7501 23.9167V24.5H23.3334Z" stroke="black" stroke-width="1.6" stroke-linecap="round" stroke-linejoin="round"/>
</svg>
