<svg width="28" height="28" viewBox="0 0 28 28" fill="none" xmlns="http://www.w3.org/2000/svg">
    <mask id="mask0_45_135" style="mask-type:alpha" maskUnits="userSpaceOnUse" x="0" y="0" width="28" height="28">
        <rect width="28" height="28" fill="#C4C4C4"/>
    </mask>
    <g mask="url(#mask0_45_135)">
        <path d="M22.8083 25.8417C22.6252 25.8417 22.4443 25.7833 22.2927 25.6737L13.5917 19.341L4.89067 25.676C4.62467 25.8673 4.27232 25.8977 3.97832 25.746C3.68665 25.5978 3.5 25.2968 3.5 24.9678V4.95833C3.5 3.51166 4.67833 2.33333 6.125 2.33333H21.056C22.5027 2.33333 23.681 3.51166 23.681 4.95833V24.9667C23.681 25.2957 23.4967 25.5967 23.2027 25.746C23.079 25.8102 22.9425 25.8417 22.806 25.8417H22.8083ZM13.5917 17.3833C13.7725 17.3833 13.9533 17.4393 14.105 17.5513L21.9333 23.2481V4.95833C21.9333 4.47766 21.5402 4.08333 21.0583 4.08333H6.125C5.64317 4.08333 5.25 4.47766 5.25 4.95833V23.2481L13.0783 17.5513C13.23 17.4393 13.4108 17.3833 13.5917 17.3833Z" fill="black"/>
    </g>
</svg>
