<svg width="28" height="29" viewBox="0 0 28 29" fill="none" xmlns="http://www.w3.org/2000/svg">
    <path d="M13.5544 14.1027C17.1747 14.1027 20.1092 11.1696 20.1092 7.55137C20.1092 3.93331 17.1747 1 13.5544 1C9.93438 1 6.99951 3.93331 6.99951 7.55137C7.00229 11.1684 9.93542 14.1 13.5544 14.1027ZM13.5544 3.15466C16.561 3.15466 18.2383 4.44807 18.2383 7.55137C18.2383 10.6547 16.561 12.1547 13.5544 12.1547C10.548 12.1547 8.73828 10.1547 8.73828 7.55137C8.73828 4.61183 10.5499 3.15953 13.5544 3.15466Z" fill="black"/>
    <path d="M6.44608 19.5672L6.44617 19.5671C8.31691 17.6549 10.8373 16.6027 13.5544 16.6027C16.2712 16.6027 18.7917 17.66 20.663 19.5727L20.6636 19.5733C22.5594 21.505 23.6086 24.1631 23.6089 27.0559C23.6086 27.0867 23.5838 27.1118 23.5524 27.1121H3.55665C3.525 27.1118 3.50008 27.0862 3.5 27.0556L3 27.057H3.5C3.5 24.1584 4.54925 21.5052 6.44608 19.5672ZM4.73887 25.4925L4.71333 26.0168H5.23828H13.7383H21.7383H22.2632L22.2377 25.4925C22.1741 24.1866 21.9394 23.2313 21.5618 22.4065C21.1884 21.5911 20.6846 20.9267 20.1345 20.2119C19.0292 18.7757 16.8751 17.5168 13.7383 17.5168C10.6357 17.5168 8.49504 18.5275 7.38075 19.6673C6.53298 20.5345 5.8955 21.3281 5.45938 22.2489C5.0214 23.1736 4.80219 24.1928 4.73887 25.4925Z" fill="black" stroke="black"/>
</svg>
