<svg width="32" height="32" viewBox="0 0 32 32" fill="none" xmlns="http://www.w3.org/2000/svg">
    <path fill-rule="evenodd" clip-rule="evenodd" d="M9.15474 7.54948C9.79314 7.12291 10.5437 6.89523 11.3115 6.89523C11.8044 6.89523 12.204 7.29485 12.204 7.78779C12.204 8.28074 11.8044 8.68035 11.3115 8.68035C10.8968 8.68035 10.4913 8.80334 10.1465 9.03375C9.80166 9.26416 9.53289 9.59166 9.37418 9.97482C9.21547 10.358 9.17395 10.7796 9.25486 11.1864C9.33577 11.5931 9.53548 11.9668 9.82874 12.26C10.122 12.5533 10.4956 12.753 10.9024 12.8339C11.3092 12.9148 11.7308 12.8733 12.1139 12.7146C12.4971 12.5559 12.8246 12.2871 13.055 11.9423C13.2854 11.5974 13.4084 11.192 13.4084 10.7773C13.4084 10.2843 13.808 9.88471 14.301 9.88471C14.7939 9.88471 15.1935 10.2843 15.1935 10.7773C15.1935 11.5451 14.9658 12.2956 14.5393 12.934C14.1127 13.5724 13.5064 14.07 12.7971 14.3638C12.0877 14.6576 11.3072 14.7345 10.5541 14.5847C9.8011 14.4349 9.10938 14.0652 8.56647 13.5223C8.02356 12.9794 7.65383 12.2877 7.50404 11.5346C7.35425 10.7816 7.43113 10.001 7.72495 9.29168C8.01877 8.58233 8.51634 7.97604 9.15474 7.54948Z" fill="#8D98AA"/>
    <path fill-rule="evenodd" clip-rule="evenodd" d="M30.7047 12.0713C31.1905 12.0713 31.5844 12.4733 31.5844 12.9693V20.4888C31.5844 24.3355 30.8404 27.2618 28.948 29.2044C27.0544 31.1482 24.2005 31.9128 20.4507 31.9128H11.6618C7.91313 31.9128 5.05935 31.1485 3.16548 29.2049C1.27276 27.2625 0.528076 24.3362 0.528076 20.4888V17.4654C0.528076 16.9695 0.921939 16.5674 1.40779 16.5674C1.89365 16.5674 2.28751 16.9695 2.28751 17.4654V20.4888C2.28751 24.1608 3.00902 26.4975 4.41289 27.9383C5.81561 29.3778 8.08882 30.1168 11.6618 30.1168H20.4507C24.0248 30.1168 26.298 29.3775 27.7004 27.9379C29.104 26.4971 29.825 24.1604 29.825 20.4888V12.9693C29.825 12.4733 30.2188 12.0713 30.7047 12.0713Z" fill="#8D98AA"/>
    <path fill-rule="evenodd" clip-rule="evenodd" d="M3.20209 3.50947C5.12115 1.60551 8.01291 0.856506 11.8142 0.856506H17.7571C18.2471 0.856506 18.6443 1.25058 18.6443 1.7367C18.6443 2.22282 18.2471 2.6169 17.7571 2.6169H11.8142C8.18798 2.6169 5.88028 3.34193 4.45675 4.75426C3.03322 6.16658 2.30243 8.45612 2.30243 12.0538C2.30243 12.5399 1.90523 12.934 1.41526 12.934C0.92528 12.934 0.528076 12.5399 0.528076 12.0538C0.528076 8.28243 1.28302 5.41343 3.20209 3.50947Z" fill="#8D98AA"/>
    <path fill-rule="evenodd" clip-rule="evenodd" d="M20.3696 6.03257C20.3696 5.55612 20.7831 5.16989 21.293 5.16989H29.7983C30.3083 5.16989 30.7217 5.55612 30.7217 6.03257C30.7217 6.50901 30.3083 6.89524 29.7983 6.89524H21.293C20.7831 6.89524 20.3696 6.50901 20.3696 6.03257Z" fill="#8D98AA"/>
    <path fill-rule="evenodd" clip-rule="evenodd" d="M25.5458 0.856506C26.0222 0.856506 26.4085 1.26993 26.4085 1.77992V10.2852C26.4085 10.7952 26.0222 11.2086 25.5458 11.2086C25.0693 11.2086 24.6831 10.7952 24.6831 10.2852V1.77992C24.6831 1.26993 25.0693 0.856506 25.5458 0.856506Z" fill="#8D98AA"/>
    <path fill-rule="evenodd" clip-rule="evenodd" d="M24.7259 17.8296L18.6205 23.1148L18.6043 23.1285C17.862 23.7404 16.9307 24.075 15.9695 24.075C15.0083 24.075 14.077 23.7404 13.3347 23.1285C13.3267 23.1219 13.3188 23.1151 13.311 23.1083L12.8397 22.691C12.4451 22.3725 11.9603 22.1865 11.4541 22.1594C10.9447 22.1322 10.4398 22.2673 10.0119 22.5454L2.76874 27.4477C2.36444 27.7214 1.81534 27.6148 1.54228 27.2096C1.26922 26.8044 1.37561 26.2542 1.77991 25.9805L9.0412 21.0659C9.78426 20.5802 10.6623 20.3441 11.5481 20.3914C12.434 20.4388 13.2819 20.7672 13.9692 21.3294C13.9781 21.3367 13.9869 21.3441 13.9955 21.3518L14.4683 21.7703C14.8925 22.1158 15.4226 22.3045 15.9695 22.3045C16.5179 22.3045 17.0495 22.1147 17.4743 21.7674L23.5797 16.4823L23.5959 16.4686C24.3382 15.8566 25.2695 15.522 26.2307 15.522C27.1919 15.522 28.1232 15.8566 28.8655 16.4686L28.8818 16.4823L31.2786 18.5573C31.6478 18.8769 31.6886 19.436 31.3696 19.8059C31.0507 20.1759 30.4928 20.2167 30.1237 19.8971L27.7355 17.8296C27.3107 17.4823 26.7791 17.2925 26.2307 17.2925C25.6823 17.2925 25.1507 17.4823 24.7259 17.8296Z" fill="#8D98AA"/>
</svg>
