<svg width="25" height="25" viewBox="0 0 25 25" fill="none" xmlns="http://www.w3.org/2000/svg">
    <mask id="mask0_108_164" style="mask-type:alpha" maskUnits="userSpaceOnUse" x="0" y="0" width="25" height="25">
        <rect x="0.328491" y="0.80957" width="24" height="24" fill="#C4C4C4"/>
    </mask>
    <g mask="url(#mask0_108_164)">
        <path d="M12.3785 22.7236H12.3645C9.78149 22.6756 2.32849 15.9416 2.32849 9.56357C2.32849 6.49957 4.85349 3.80957 7.73149 3.80957C10.0215 3.80957 11.5615 5.38957 12.3775 6.53957C13.1915 5.39157 14.7315 3.80957 17.0225 3.80957C19.9025 3.80957 22.4265 6.49957 22.4265 9.56457C22.4265 15.9406 14.9725 22.6746 12.3895 22.7216H12.3785V22.7236ZM7.73249 5.31057C5.65249 5.31057 3.82949 7.29857 3.82949 9.56557C3.82949 15.3056 10.8635 21.1616 12.3795 21.2236C13.8975 21.1616 20.9295 15.3066 20.9295 9.56557C20.9295 7.29857 19.1065 5.31057 17.0265 5.31057C14.4985 5.31057 13.0865 8.24657 13.0745 8.27557C12.8445 8.83757 11.9185 8.83757 11.6875 8.27557C11.6735 8.24557 10.2625 5.31057 7.7335 5.31057H7.73249Z" fill="#536471"/>
    </g>
</svg>
