<svg width="27" height="33" viewBox="0 0 27 33" fill="none" xmlns="http://www.w3.org/2000/svg">
    <g opacity="0.6">
        <path d="M13.2899 19.7461C11.0541 19.7461 9.23486 17.5106 9.23486 14.7616C9.23486 12.0126 11.0552 9.77317 13.2899 9.77317C15.5246 9.77317 17.3449 12.0113 17.3449 14.759C17.3449 17.5067 15.5246 19.7422 13.2899 19.7422V19.7461ZM13.2899 11.7506C11.9407 11.7506 10.841 13.1014 10.841 14.7616C10.841 16.4218 11.9407 17.77 13.2899 17.77C14.639 17.77 15.7387 16.4205 15.7387 14.7603C15.7387 13.1001 14.639 11.748 13.2899 11.748V11.7506Z" fill="black"/>
        <path d="M22.597 14.9736C22.597 8.66726 18.421 3.53267 13.2899 3.53267C8.15878 3.53267 3.98279 8.66726 3.98279 14.9736C3.98279 17.4777 4.62846 19.8554 5.84914 21.85L5.85235 21.8474L5.85985 21.8671C7.60306 24.5924 12.5821 29.4465 12.7931 29.6506C12.9408 29.7954 13.1164 29.8652 13.291 29.8652C13.4655 29.8652 13.6411 29.7954 13.7889 29.6519C13.9998 29.4479 18.9789 24.5963 20.7221 21.8684L20.7296 21.85L20.7317 21.8526C21.9524 19.8567 22.597 17.4816 22.597 14.9762V14.9736ZM13.2899 27.6126C11.9793 26.3092 8.45003 22.7215 7.12656 20.6545C6.12004 19.0088 5.58894 17.0445 5.58894 14.9775C5.58894 9.75605 9.04431 5.50751 13.2899 5.50751C17.5355 5.50751 20.9909 9.75474 20.9909 14.9736C20.9909 17.0406 20.4587 19.0049 19.4533 20.6519C18.1298 22.7189 14.6005 26.3052 13.2899 27.6099V27.6126Z" fill="black"/>
    </g>
</svg>
