<svg width="18" height="5" viewBox="0 0 18 5" fill="none" xmlns="http://www.w3.org/2000/svg">
    <path d="M4.25169 2.80957C4.25169 3.91414 3.37348 4.80957 2.29015 4.80957C1.20682 4.80957 0.328613 3.91414 0.328613 2.80957C0.328613 1.705 1.20682 0.80957 2.29015 0.80957C3.37348 0.80957 4.25169 1.705 4.25169 2.80957Z" fill="black"/>
    <path d="M10.7902 2.80957C10.7902 3.91414 9.91194 4.80957 8.82861 4.80957C7.74529 4.80957 6.86707 3.91414 6.86707 2.80957C6.86707 1.705 7.74529 0.80957 8.82861 0.80957C9.91194 0.80957 10.7902 1.705 10.7902 2.80957Z" fill="black"/>
    <path d="M17.3286 2.80957C17.3286 3.91414 16.4504 4.80957 15.3671 4.80957C14.2837 4.80957 13.4055 3.91414 13.4055 2.80957C13.4055 1.705 14.2837 0.80957 15.3671 0.80957C16.4504 0.80957 17.3286 1.705 17.3286 2.80957Z" fill="black"/>
</svg>
