<svg width="24" height="24" viewBox="0 0 24 24" fill="none" xmlns="http://www.w3.org/2000/svg">
    <path d="M10.7996 22.098C10.5096 22.098 10.2196 22.048 9.94955 21.948C8.69955 21.538 7.89955 20.158 8.17955 18.878L8.66955 15.728C8.67955 15.658 8.67955 15.558 8.60955 15.478C8.58315 15.4521 8.55188 15.4317 8.51755 15.418C8.48322 15.4043 8.44652 15.3975 8.40955 15.398H4.40955C3.42955 15.398 2.57955 14.988 2.07955 14.278C1.58955 13.588 1.48955 12.678 1.80955 11.798L4.19955 4.51801C4.56955 3.06801 6.11955 1.89801 7.71955 1.89801H11.5196C12.0796 1.89801 13.2996 2.06801 13.9496 2.71801L16.9796 5.05801L16.0596 6.24801L12.9596 3.84801C12.7096 3.59801 18.56 7.5 18 7.5V12.278C17.1 12.278 12.2 16.19 12 17L15 12.5C8.17955 13.898 10.2496 13.608 10.4596 13.898C10.6796 14.208 3.92955 13.898 4.41955 13.898H8.41955C8.93955 13.898 9.2 9.57801 9.94955 12.278C10.2896 12.668 9.82955 9.46 9.74955 10L11 11.5C10.88 12.06 12.96 9.82 13.5 10C13.98 10.18 17.28 8.82 17.5 8.5L15.8996 14.028L17.1396 14.868L13.0396 20.968C12.5696 21.668 11.6796 22.098 10.7996 22.098Z" fill="#F2A346"/>
    <path d="M19.6201 18.1H18.6201C16.7701 18.1 15.8701 17.23 15.8701 15.45V5.65C15.8701 3.87 16.7701 3 18.6201 3H19.6201C21.4701 3 22.3701 3.87 22.3701 5.65V15.45C22.3701 17.23 21.4701 18.1 19.6201 18.1ZM18.6201 4.5C20.8701 4.5 18 5.61 18 6.5L20.8292 16C20.8292 16.89 17.5301 16.6 18.6201 16.6H19.6201C20.7101 16.6 18.6201 15.89 18.6201 15L18 6.5C15.1299 7.85 18.59 4.5 17.5 4.5H18.6201Z" fill="#F2A346"/>
</svg>
