<svg width="24" height="24" viewBox="0 0 24 24" fill="none" xmlns="http://www.w3.org/2000/svg">
    <path d="M10.7996 22.098C10.5096 22.098 10.2196 22.048 9.94955 21.948C8.69955 21.538 7.89955 20.158 8.17955 18.878L8.66955 15.728C8.67955 15.658 8.67955 15.558 8.60955 15.478C8.58315 15.4521 8.55188 15.4317 8.51755 15.418C8.48322 15.4043 8.44652 15.3975 8.40955 15.398H4.40955C3.42955 15.398 2.57955 14.988 2.07955 14.278C1.58955 13.588 1.48955 12.678 1.80955 11.798L4.19955 4.518C4.56955 3.068 6.11955 1.898 7.71955 1.898H11.5196C12.0796 1.898 13.2996 2.068 13.9496 2.718L16.9796 5.058L16.0596 6.248L12.9596 3.848C12.7096 3.598 12.0796 3.398 11.5196 3.398H7.71955C6.81955 3.398 5.84955 4.118 5.64955 4.928L3.22955 12.278C3.06955 12.718 3.09955 13.118 3.30955 13.408C3.52955 13.718 3.92955 13.898 4.41955 13.898H8.41955C8.93955 13.898 9.41955 14.118 9.74955 14.498C10.0896 14.888 10.2396 15.408 10.1596 15.948L9.65955 19.158C9.53955 19.718 9.91955 20.348 10.4596 20.528C10.9396 20.708 11.5796 20.448 11.7996 20.128L15.8996 14.028L17.1396 14.868L13.0396 20.968C12.5696 21.668 11.6796 22.098 10.7996 22.098Z" fill="#F2A346"/>
    <path d="M19.6201 18.1H18.6201C16.7701 18.1 15.8701 17.23 15.8701 15.45V5.65C15.8701 3.87 16.7701 3 18.6201 3H19.6201C21.4701 3 22.3701 3.87 22.3701 5.65V15.45C22.3701 17.23 21.4701 18.1 19.6201 18.1ZM18.6201 4.5C17.5301 4.5 17.3701 4.76 17.3701 5.65V15.45C17.3701 16.34 17.5301 16.6 18.6201 16.6H19.6201C20.7101 16.6 20.8701 16.34 20.8701 15.45V5.65C20.8701 4.76 20.7101 4.5 19.6201 4.5H18.6201Z" fill="#F2A346"/>
</svg>
