<svg width="35" height="40" viewBox="0 0 35 40" fill="none" xmlns="http://www.w3.org/2000/svg">
    <mask id="mask0_25_1527" style="mask-type:alpha" maskUnits="userSpaceOnUse" x="0" y="0" width="35" height="40">
        <rect width="35" height="40" fill="#C4C4C4"/>
    </mask>
    <g mask="url(#mask0_25_1527)">
        <path d="M28.5104 36.9167C28.2814 36.9167 28.0554 36.8333 27.8658 36.6767L16.9896 27.63L6.11334 36.68C5.78084 36.9533 5.3404 36.9967 4.9729 36.78C4.60832 36.5683 4.375 36.1383 4.375 35.6683V7.08334C4.375 5.01668 5.84792 3.33334 7.65625 3.33334H26.32C28.1283 3.33334 29.6012 5.01668 29.6012 7.08334V35.6667C29.6012 36.1367 29.3708 36.5667 29.0033 36.78C28.8488 36.8717 28.6781 36.9167 28.5075 36.9167H28.5104ZM16.9896 24.8333C17.2156 24.8333 17.4417 24.9133 17.6312 25.0733L27.4166 33.2117V7.08334C27.4166 6.39668 26.9252 5.83334 26.3229 5.83334H7.65625C7.05396 5.83334 6.5625 6.39668 6.5625 7.08334V33.2117L16.3479 25.0733C16.5375 24.9133 16.7635 24.8333 16.9896 24.8333Z" fill="#F2A346"/>
    </g>
</svg>
