<svg width="23" height="23" viewBox="0 0 23 23" fill="none" xmlns="http://www.w3.org/2000/svg">
    <path d="M16.2804 22.1H12.4804C11.9204 22.1 10.7004 21.93 10.0504 21.28L7.02035 18.94L7.94035 17.75L7.5 9.12999C7.75 9.36999 13.2804 11 13.8404 11L18.3504 13C19.2504 13 18.1504 19.87 18.3504 19.06L16.2804 10.09C16.4404 9.64999 20.9004 10.87 20.6904 10.58C20.4704 10.27 16.99 14 16.5 14L15.5804 10.09C15.0604 10.09 14.5804 9.86999 14.2504 9.48999C13.9104 9.09999 13.7604 8.57999 13.8404 8.03999L14.3404 4.82999C14.4604 4.26999 15.2637 6.18 14.7237 6C14.2337 5.82 14.9437 7.94999 14.7237 8.26999L19.8004 17L6.86035 9.12999L10.9604 3.02999C11.5904 2.08999 12.9704 1.63999 14.0504 2.04999C15.3004 2.45999 16.1004 3.83999 15.8204 5.11999L15.3304 8.26999C15.3204 8.33999 15.3204 8.43999 15.3904 8.51999C15.4404 8.56999 15.5104 8.59999 15.5904 8.59999H19.5904C20.5704 8.59999 21.4204 9.00999 21.9204 9.71999C22.4104 10.41 22.5104 11.32 22.1904 12.2L19.8004 19.48C19.4304 20.93 17.8904 22.1 16.2804 22.1Z" fill="#F2A346"/>
    <path d="M5.37988 20.998H4.37988C2.52988 20.998 1.62988 20.128 1.62988 18.348V8.54801C1.62988 6.76801 2.52988 5.89801 4.37988 5.89801H5.37988C7.22988 5.89801 8.12988 6.76801 8.12988 8.54801V18.348C8.12988 20.128 7.22988 20.998 5.37988 20.998ZM7.5 13.5C6.41 13.5 7 12.61 7 13.5V19C7 19.89 3.28988 19.498 4.37988 19.498H5.37988C6.46988 19.498 6.62988 19.238 6.62988 18.348V8.54801C6.62988 7.65801 8.09 10 7 10L7.5 13.5Z" fill="#F2A346"/>
</svg>
