<svg width="180" height="38" viewBox="0 0 180 38" fill="none" xmlns="http://www.w3.org/2000/svg">
    <rect x="0.5" y="0.5" width="179" height="37" rx="18.5" stroke="#84A979"/>
    <path d="M64.1716 18.63C64.1716 19.46 64.0666 20.215 63.8566 20.895C63.6466 21.565 63.3316 22.145 62.9116 22.635C62.5016 23.125 61.9866 23.5 61.3666 23.76C60.7566 24.02 60.0466 24.15 59.2366 24.15C58.3966 24.15 57.6666 24.02 57.0466 23.76C56.4266 23.49 55.9116 23.115 55.5016 22.635C55.0916 22.145 54.7866 21.56 54.5866 20.88C54.3866 20.2 54.2866 19.445 54.2866 18.615C54.2866 17.515 54.4666 16.555 54.8266 15.735C55.1866 14.915 55.7316 14.275 56.4616 13.815C57.2016 13.355 58.1316 13.125 59.2516 13.125C60.3216 13.125 61.2216 13.355 61.9516 13.815C62.6816 14.265 63.2316 14.905 63.6016 15.735C63.9816 16.555 64.1716 17.52 64.1716 18.63ZM55.7116 18.63C55.7116 19.53 55.8366 20.305 56.0866 20.955C56.3366 21.605 56.7216 22.105 57.2416 22.455C57.7716 22.805 58.4366 22.98 59.2366 22.98C60.0466 22.98 60.7066 22.805 61.2166 22.455C61.7366 22.105 62.1216 21.605 62.3716 20.955C62.6216 20.305 62.7466 19.53 62.7466 18.63C62.7466 17.28 62.4666 16.225 61.9066 15.465C61.3466 14.695 60.4616 14.31 59.2516 14.31C58.4416 14.31 57.7716 14.485 57.2416 14.835C56.7216 15.175 56.3366 15.67 56.0866 16.32C55.8366 16.96 55.7116 17.73 55.7116 18.63ZM72.1888 15.96V22.89H73.3588V26.79H72.0838V24H66.4888V26.79H65.2288V22.89H65.8738C66.3338 22.25 66.7138 21.555 67.0138 20.805C67.3238 20.045 67.5538 19.255 67.7038 18.435C67.8638 17.605 67.9488 16.78 67.9588 15.96H72.1888ZM69.1288 16.995C69.0888 17.675 68.9838 18.38 68.8138 19.11C68.6438 19.83 68.4238 20.52 68.1538 21.18C67.8938 21.84 67.5888 22.41 67.2388 22.89H70.9138V16.995H69.1288ZM81.9247 19.965C81.9247 20.635 81.8347 21.23 81.6547 21.75C81.4847 22.26 81.2347 22.695 80.9047 23.055C80.5847 23.415 80.1897 23.69 79.7197 23.88C79.2597 24.06 78.7447 24.15 78.1747 24.15C77.6447 24.15 77.1547 24.06 76.7047 23.88C76.2547 23.69 75.8647 23.415 75.5347 23.055C75.2047 22.695 74.9447 22.26 74.7547 21.75C74.5747 21.23 74.4847 20.635 74.4847 19.965C74.4847 19.075 74.6347 18.325 74.9347 17.715C75.2347 17.095 75.6647 16.625 76.2247 16.305C76.7847 15.975 77.4497 15.81 78.2197 15.81C78.9497 15.81 79.5897 15.975 80.1397 16.305C80.6997 16.625 81.1347 17.095 81.4447 17.715C81.7647 18.325 81.9247 19.075 81.9247 19.965ZM75.8497 19.965C75.8497 20.595 75.9297 21.145 76.0897 21.615C76.2597 22.075 76.5197 22.43 76.8697 22.68C77.2197 22.93 77.6647 23.055 78.2047 23.055C78.7447 23.055 79.1897 22.93 79.5397 22.68C79.8897 22.43 80.1447 22.075 80.3047 21.615C80.4747 21.145 80.5597 20.595 80.5597 19.965C80.5597 19.325 80.4747 18.78 80.3047 18.33C80.1347 17.88 79.8747 17.535 79.5247 17.295C79.1847 17.045 78.7397 16.92 78.1897 16.92C77.3697 16.92 76.7747 17.19 76.4047 17.73C76.0347 18.27 75.8497 19.015 75.8497 19.965ZM83.5967 19.17C83.5967 18 83.7117 17.005 83.9417 16.185C84.1817 15.355 84.5467 14.695 85.0367 14.205C85.5367 13.705 86.1767 13.37 86.9567 13.2C87.6067 13.06 88.2417 12.935 88.8617 12.825C89.4817 12.715 90.0617 12.615 90.6017 12.525L90.8267 13.68C90.5667 13.72 90.2767 13.77 89.9567 13.83C89.6367 13.88 89.3117 13.935 88.9817 13.995C88.6517 14.045 88.3317 14.1 88.0217 14.16C87.7217 14.21 87.4567 14.26 87.2267 14.31C86.8967 14.38 86.6017 14.5 86.3417 14.67C86.0817 14.83 85.8567 15.05 85.6667 15.33C85.4867 15.61 85.3417 15.955 85.2317 16.365C85.1217 16.775 85.0567 17.26 85.0367 17.82H85.1267C85.2667 17.63 85.4567 17.435 85.6967 17.235C85.9467 17.035 86.2417 16.865 86.5817 16.725C86.9317 16.585 87.3267 16.515 87.7667 16.515C88.4667 16.515 89.0467 16.67 89.5067 16.98C89.9767 17.28 90.3267 17.7 90.5567 18.24C90.7967 18.78 90.9167 19.41 90.9167 20.13C90.9167 21.02 90.7617 21.765 90.4517 22.365C90.1417 22.965 89.7117 23.415 89.1617 23.715C88.6117 24.005 87.9717 24.15 87.2417 24.15C86.6917 24.15 86.1917 24.045 85.7417 23.835C85.2917 23.615 84.9067 23.295 84.5867 22.875C84.2667 22.455 84.0217 21.935 83.8517 21.315C83.6817 20.695 83.5967 19.98 83.5967 19.17ZM87.3467 23.055C87.7867 23.055 88.1667 22.965 88.4867 22.785C88.8167 22.605 89.0717 22.31 89.2517 21.9C89.4317 21.49 89.5217 20.945 89.5217 20.265C89.5217 19.445 89.3667 18.8 89.0567 18.33C88.7567 17.85 88.2567 17.61 87.5567 17.61C87.1167 17.61 86.7167 17.71 86.3567 17.91C85.9967 18.1 85.6967 18.32 85.4567 18.57C85.2167 18.82 85.0467 19.03 84.9467 19.2C84.9467 19.69 84.9817 20.165 85.0517 20.625C85.1217 21.085 85.2417 21.5 85.4117 21.87C85.5917 22.23 85.8367 22.52 86.1467 22.74C86.4667 22.95 86.8667 23.055 87.3467 23.055ZM96.8212 15.81C97.8112 15.81 98.6062 16.155 99.2062 16.845C99.8162 17.535 100.121 18.575 100.121 19.965C100.121 20.875 99.9812 21.645 99.7012 22.275C99.4312 22.895 99.0462 23.365 98.5462 23.685C98.0562 23.995 97.4762 24.15 96.8062 24.15C96.3962 24.15 96.0312 24.095 95.7112 23.985C95.3912 23.875 95.1162 23.735 94.8862 23.565C94.6662 23.385 94.4762 23.19 94.3162 22.98H94.2262C94.2462 23.15 94.2662 23.365 94.2862 23.625C94.3062 23.885 94.3162 24.11 94.3162 24.3V27.6H92.9962V15.96H94.0762L94.2562 17.055H94.3162C94.4762 16.825 94.6662 16.615 94.8862 16.425C95.1162 16.235 95.3862 16.085 95.6962 15.975C96.0162 15.865 96.3912 15.81 96.8212 15.81ZM96.5812 16.92C96.0412 16.92 95.6062 17.025 95.2762 17.235C94.9462 17.435 94.7062 17.74 94.5562 18.15C94.4062 18.56 94.3262 19.08 94.3162 19.71V19.965C94.3162 20.625 94.3862 21.185 94.5262 21.645C94.6662 22.105 94.9012 22.455 95.2312 22.695C95.5712 22.935 96.0312 23.055 96.6112 23.055C97.1012 23.055 97.5012 22.92 97.8112 22.65C98.1312 22.38 98.3662 22.015 98.5162 21.555C98.6762 21.085 98.7562 20.55 98.7562 19.95C98.7562 19.03 98.5762 18.295 98.2162 17.745C97.8662 17.195 97.3212 16.92 96.5812 16.92ZM103.47 20.865C103.47 20.955 103.465 21.085 103.455 21.255C103.455 21.415 103.45 21.59 103.44 21.78C103.43 21.96 103.42 22.135 103.41 22.305C103.4 22.465 103.39 22.595 103.38 22.695L107.685 15.96H109.305V24H108.075V19.26C108.075 19.1 108.075 18.89 108.075 18.63C108.085 18.37 108.095 18.115 108.105 17.865C108.115 17.605 108.125 17.41 108.135 17.28L103.86 24H102.225V15.96H103.47V20.865ZM117.413 17.07H114.788V24H113.483V17.07H110.888V15.96H117.413V17.07ZM122.702 19.26C123.402 19.26 123.982 19.345 124.442 19.515C124.902 19.685 125.247 19.94 125.477 20.28C125.717 20.61 125.837 21.03 125.837 21.54C125.837 22.04 125.722 22.475 125.492 22.845C125.272 23.215 124.927 23.5 124.457 23.7C123.987 23.9 123.382 24 122.642 24H118.997V15.96H120.317V19.26H122.702ZM124.517 21.615C124.517 21.125 124.342 20.795 123.992 20.625C123.652 20.445 123.172 20.355 122.552 20.355H120.317V22.935H122.582C123.142 22.935 123.602 22.835 123.962 22.635C124.332 22.435 124.517 22.095 124.517 21.615Z" fill="#84A979"/>
</svg>
