<svg width="180" height="38" viewBox="0 0 180 38" fill="none" xmlns="http://www.w3.org/2000/svg">
    <rect x="0.5" y="0.5" width="179" height="37" rx="18.5" stroke="#B25050"/>
    <path d="M60.9123 18.63C60.9123 19.46 60.8073 20.215 60.5973 20.895C60.3873 21.565 60.0723 22.145 59.6523 22.635C59.2423 23.125 58.7273 23.5 58.1073 23.76C57.4973 24.02 56.7873 24.15 55.9773 24.15C55.1373 24.15 54.4073 24.02 53.7873 23.76C53.1673 23.49 52.6523 23.115 52.2423 22.635C51.8323 22.145 51.5273 21.56 51.3273 20.88C51.1273 20.2 51.0273 19.445 51.0273 18.615C51.0273 17.515 51.2073 16.555 51.5673 15.735C51.9273 14.915 52.4723 14.275 53.2023 13.815C53.9423 13.355 54.8723 13.125 55.9923 13.125C57.0623 13.125 57.9623 13.355 58.6923 13.815C59.4223 14.265 59.9723 14.905 60.3423 15.735C60.7223 16.555 60.9123 17.52 60.9123 18.63ZM52.4523 18.63C52.4523 19.53 52.5773 20.305 52.8273 20.955C53.0773 21.605 53.4623 22.105 53.9823 22.455C54.5123 22.805 55.1773 22.98 55.9773 22.98C56.7873 22.98 57.4473 22.805 57.9573 22.455C58.4773 22.105 58.8623 21.605 59.1123 20.955C59.3623 20.305 59.4873 19.53 59.4873 18.63C59.4873 17.28 59.2073 16.225 58.6473 15.465C58.0873 14.695 57.2023 14.31 55.9923 14.31C55.1823 14.31 54.5123 14.485 53.9823 14.835C53.4623 15.175 53.0773 15.67 52.8273 16.32C52.5773 16.96 52.4523 17.73 52.4523 18.63ZM68.6561 17.07H66.0311V24H64.7261V17.07H62.1311V15.96H68.6561V17.07ZM74.9948 15.96H76.4348L72.9998 19.83L76.7198 24H75.1898L71.5598 19.92V24H70.2398V15.96H71.5598V19.86L74.9948 15.96ZM84.2993 24H82.9643V17.055H80.5943C80.4943 18.325 80.3693 19.41 80.2193 20.31C80.0693 21.2 79.8793 21.925 79.6493 22.485C79.4193 23.045 79.1443 23.455 78.8243 23.715C78.5043 23.975 78.1293 24.105 77.6993 24.105C77.5693 24.105 77.4393 24.095 77.3093 24.075C77.1893 24.065 77.0893 24.04 77.0093 24V23.01C77.0693 23.03 77.1343 23.045 77.2043 23.055C77.2743 23.065 77.3443 23.07 77.4143 23.07C77.6343 23.07 77.8343 22.98 78.0143 22.8C78.1943 22.62 78.3543 22.345 78.4943 21.975C78.6443 21.605 78.7793 21.14 78.8993 20.58C79.0193 20.01 79.1243 19.34 79.2143 18.57C79.3043 17.8 79.3843 16.93 79.4543 15.96H84.2993V24ZM93.8412 19.965C93.8412 20.635 93.7512 21.23 93.5712 21.75C93.4012 22.26 93.1512 22.695 92.8212 23.055C92.5012 23.415 92.1062 23.69 91.6362 23.88C91.1762 24.06 90.6612 24.15 90.0912 24.15C89.5612 24.15 89.0712 24.06 88.6212 23.88C88.1712 23.69 87.7812 23.415 87.4512 23.055C87.1212 22.695 86.8612 22.26 86.6712 21.75C86.4912 21.23 86.4012 20.635 86.4012 19.965C86.4012 19.075 86.5512 18.325 86.8512 17.715C87.1512 17.095 87.5812 16.625 88.1412 16.305C88.7012 15.975 89.3662 15.81 90.1362 15.81C90.8662 15.81 91.5062 15.975 92.0562 16.305C92.6162 16.625 93.0512 17.095 93.3612 17.715C93.6812 18.325 93.8412 19.075 93.8412 19.965ZM87.7662 19.965C87.7662 20.595 87.8462 21.145 88.0062 21.615C88.1762 22.075 88.4362 22.43 88.7862 22.68C89.1362 22.93 89.5812 23.055 90.1212 23.055C90.6612 23.055 91.1062 22.93 91.4562 22.68C91.8062 22.43 92.0612 22.075 92.2212 21.615C92.3912 21.145 92.4762 20.595 92.4762 19.965C92.4762 19.325 92.3912 18.78 92.2212 18.33C92.0512 17.88 91.7912 17.535 91.4412 17.295C91.1012 17.045 90.6562 16.92 90.1062 16.92C89.2862 16.92 88.6912 17.19 88.3212 17.73C87.9512 18.27 87.7662 19.015 87.7662 19.965ZM97.2532 15.96V19.305H101.618V15.96H102.938V24H101.618V20.415H97.2532V24H95.9332V15.96H97.2532ZM106.729 20.865C106.729 20.955 106.724 21.085 106.714 21.255C106.714 21.415 106.709 21.59 106.699 21.78C106.689 21.96 106.679 22.135 106.669 22.305C106.659 22.465 106.649 22.595 106.639 22.695L110.944 15.96H112.564V24H111.334V19.26C111.334 19.1 111.334 18.89 111.334 18.63C111.344 18.37 111.354 18.115 111.364 17.865C111.374 17.605 111.384 17.41 111.394 17.28L107.119 24H105.484V15.96H106.729V20.865ZM120.673 17.07H118.048V24H116.743V17.07H114.148V15.96H120.673V17.07ZM125.961 19.26C126.661 19.26 127.241 19.345 127.701 19.515C128.161 19.685 128.506 19.94 128.736 20.28C128.976 20.61 129.096 21.03 129.096 21.54C129.096 22.04 128.981 22.475 128.751 22.845C128.531 23.215 128.186 23.5 127.716 23.7C127.246 23.9 126.641 24 125.901 24H122.256V15.96H123.576V19.26H125.961ZM127.776 21.615C127.776 21.125 127.601 20.795 127.251 20.625C126.911 20.445 126.431 20.355 125.811 20.355H123.576V22.935H125.841C126.401 22.935 126.861 22.835 127.221 22.635C127.591 22.435 127.776 22.095 127.776 21.615Z" fill="#B25050"/>
</svg>
