<svg width="18" height="18" viewBox="0 0 18 18" fill="none" xmlns="http://www.w3.org/2000/svg">
    <path d="M14.5867 8.28593C14.5867 9.55738 14.2018 10.8003 13.4805 11.8575C12.7593 12.9146 11.7341 13.7386 10.5348 14.2252C9.33536 14.7117 8.01558 14.839 6.74232 14.591C5.46905 14.3429 4.29948 13.7307 3.3815 12.8316C2.46353 11.9326 1.83838 10.7871 1.58511 9.54008C1.33184 8.29306 1.46183 7.00049 1.95863 5.82582C2.45544 4.65116 3.29675 3.64715 4.37617 2.94077C5.45559 2.23439 6.72465 1.85736 8.02286 1.85736C9.76371 1.85736 11.4333 2.53465 12.6642 3.74025C13.8952 4.94584 14.5867 6.58097 14.5867 8.28593Z" stroke="#8D98AA" stroke-width="1.5" stroke-linecap="round" stroke-linejoin="round"/>
    <path d="M16.7734 16.8565L13.8564 13.9997" stroke="#8D98AA" stroke-width="1.5" stroke-linecap="round" stroke-linejoin="round"/>
</svg>
